<svg xmlns="http://www.w3.org/2000/svg" viewBox="0 0 64 64" fill="none">
  <circle cx="32" cy="32" r="30" fill="#FFF8E1"/>
  <ellipse cx="32" cy="40" rx="10" ry="14" fill="#FF8F00"/>
  <path d="M24 34l16 0" stroke="#F57F17" stroke-width="1" opacity="0.5"/>
  <path d="M24 38l16 0" stroke="#F57F17" stroke-width="1" opacity="0.5"/>
  <path d="M24 42l16 0" stroke="#F57F17" stroke-width="1" opacity="0.5"/>
  <path d="M26 32l12 8" stroke="#F57F17" stroke-width="1" opacity="0.3"/>
  <path d="M38 32l-12 8" stroke="#F57F17" stroke-width="1" opacity="0.3"/>
  <path d="M32 26c-2-6 0-10 0-14" stroke="#4CAF50" stroke-width="2" stroke-linecap="round"/>
  <path d="M28 18c-4-2-6-1-8 0" stroke="#66BB6A" stroke-width="2" stroke-linecap="round"/>
  <path d="M36 18c4-2 6-1 8 0" stroke="#81C784" stroke-width="2" stroke-linecap="round"/>
  <path d="M30 14c-2-4-1-6 0-8" stroke="#A5D6A7" stroke-width="1.5" stroke-linecap="round"/>
  <path d="M34 14c2-4 1-6 0-8" stroke="#A5D6A7" stroke-width="1.5" stroke-linecap="round"/>
</svg>