<svg xmlns="http://www.w3.org/2000/svg" viewBox="0 0 64 64" fill="none">
  <circle cx="32" cy="32" r="30" fill="#F3E5F5"/>
  <path d="M32 34c-4-2-8 0-10 4s0 8 4 10 8 0 10-4 0-8-4-10z" fill="#9C27B0" opacity="0.8"/>
  <path d="M32 34c4-2 8 0 10 4s0 8-4 10-8 0-10-4 0-8 4-10z" fill="#AB47BC" opacity="0.7"/>
  <path d="M32 34c-2-4 0-8 4-10s8 0 10 4 0 8-4 10" fill="#CE93D8" opacity="0.5"/>
  <path d="M32 34c2-4 0-8-4-10s-8 0-10 4 0 8 4 10" fill="#BA68C8" opacity="0.6"/>
  <circle cx="32" cy="34" r="4" fill="#FFD54F"/>
  <path d="M32 34V54" stroke="#4CAF50" stroke-width="2.5" stroke-linecap="round"/>
  <path d="M28 44c-4 0-8 2-10 4" stroke="#66BB6A" stroke-width="2" stroke-linecap="round"/>
  <path d="M36 46c4 0 8 2 10 4" stroke="#66BB6A" stroke-width="2" stroke-linecap="round"/>
</svg>