<svg xmlns="http://www.w3.org/2000/svg" viewBox="0 0 64 64" fill="none">
  <circle cx="32" cy="32" r="30" fill="#FFEBEE"/>
  <path d="M22 28c0 12 6 22 10 22s10-10 10-22c0-6-4-8-10-8s-10 2-10 8z" fill="#E53935"/>
  <path d="M24 28c0 10 5 18 8 18" stroke="#EF5350" stroke-width="1" opacity="0.5"/>
  <circle cx="28" cy="32" r="1" fill="#FFCDD2"/>
  <circle cx="34" cy="34" r="1" fill="#FFCDD2"/>
  <circle cx="30" cy="38" r="1" fill="#FFCDD2"/>
  <circle cx="32" cy="28" r="1" fill="#FFCDD2"/>
  <circle cx="36" cy="30" r="1" fill="#FFCDD2"/>
  <path d="M28 22c-2-4 0-6 4-6s6 2 4 6" fill="#4CAF50"/>
  <path d="M32 16V12" stroke="#388E3C" stroke-width="2" stroke-linecap="round"/>
</svg>