<svg xmlns="http://www.w3.org/2000/svg" viewBox="0 0 64 64" fill="none">
  <circle cx="32" cy="32" r="30" fill="#E8F5E9"/>
  <path d="M32 14c-14 8-18 22-12 32 3 5 8 6 12 6s9-1 12-6c6-10 2-24-12-32z" fill="#66BB6A"/>
  <line x1="32" y1="14" x2="32" y2="52" stroke="#388E3C" stroke-width="1.5"/>
  <path d="M20 24c-2 4-4 10-4 16 0 4 2 6 4 6" stroke="#795548" stroke-width="3" stroke-linecap="round" fill="none"/>
  <path d="M44 22c2 4 4 10 4 16 0 4-2 8-4 8" stroke="#795548" stroke-width="3" stroke-linecap="round" fill="none"/>
  <path d="M20 46c2-2 2-4 4-4" stroke="#795548" stroke-width="2" stroke-linecap="round" fill="none"/>
</svg>