<svg xmlns="http://www.w3.org/2000/svg" viewBox="0 0 64 64" fill="none">
  <circle cx="32" cy="32" r="30" fill="#E8F5E9"/>
  <line x1="32" y1="54" x2="32" y2="20" stroke="#795548" stroke-width="2.5" stroke-linecap="round"/>
  <path d="M30 24c-2-2-4-1-4 1s2 3 4 2" fill="#81C784"/>
  <path d="M34 24c2-2 4-1 4 1s-2 3-4 2" fill="#81C784"/>
  <path d="M30 32c-2-1-3 0-3 1s1 2 3 2" fill="#A5D6A7"/>
  <path d="M34 32c2-1 3 0 3 1s-1 2-3 2" fill="#A5D6A7"/>
  <path d="M30 40c-1-1-2 0-2 1s1 1 2 1" fill="#C8E6C9"/>
  <path d="M34 40c1-1 2 0 2 1s-1 1-2 1" fill="#C8E6C9"/>
  <circle cx="44" cy="20" r="6" fill="none" stroke="#BDBDBD" stroke-width="1" stroke-dasharray="2 2"/>
  <line x1="42" y1="22" x2="46" y2="18" stroke="#BDBDBD" stroke-width="1"/>
  <line x1="46" y1="22" x2="42" y2="18" stroke="#BDBDBD" stroke-width="1"/>
</svg>