<svg xmlns="http://www.w3.org/2000/svg" viewBox="0 0 64 64" fill="none">
  <circle cx="32" cy="32" r="30" fill="#E8F5E9"/>
  <path d="M32 14c-12 6-18 20-14 30 2 4 8 6 12 6s9-1 12-6c4-10 2-24-12-30z" fill="#66BB6A"/>
  <line x1="32" y1="14" x2="32" y2="50" stroke="#388E3C" stroke-width="1.5"/>
  <path d="M18 28c4-2 6 0 8 2s2 4 0 4-4-2-6-2-4 0-2-4z" fill="#E8F5E9"/>
  <path d="M18 38c3-1 5 1 6 3s0 3-2 3-4-2-5-2 0-3 1-4z" fill="#E8F5E9"/>
  <path d="M44 24c-3-1-5 1-6 3s0 4 2 3 4-2 5-2 1-3-1-4z" fill="#E8F5E9"/>
</svg>