<svg xmlns="http://www.w3.org/2000/svg" viewBox="0 0 64 64" fill="none">
  <circle cx="32" cy="32" r="30" fill="#E8F5E9"/>
  <line x1="32" y1="52" x2="32" y2="20" stroke="#795548" stroke-width="2" stroke-linecap="round"/>
  <path d="M32 20c-8 4-12 10-10 16 1 4 4 4 8 2" stroke="#66BB6A" stroke-width="2.5" fill="none" stroke-linecap="round"/>
  <path d="M30 38c-2 0-2-2-1-4 1-2 3-4 5-4" stroke="#4CAF50" stroke-width="2" fill="none" stroke-linecap="round"/>
  <path d="M32 20c8 4 12 8 10 14-1 4-4 4-6 2" stroke="#81C784" stroke-width="2.5" fill="none" stroke-linecap="round"/>
  <path d="M36 36c2-1 2-3 1-5s-3-4-4-4" stroke="#66BB6A" stroke-width="2" fill="none" stroke-linecap="round"/>
</svg>