<svg xmlns="http://www.w3.org/2000/svg" viewBox="0 0 64 64" fill="none">
  <circle cx="32" cy="32" r="30" fill="#FCE4EC"/>
  <line x1="32" y1="54" x2="32" y2="30" stroke="#4CAF50" stroke-width="2" stroke-linecap="round"/>
  <path d="M26 14c3-4 4-2 4 2s-2 6-4 6-3-4 0-8z" fill="#F48FB1"/>
  <path d="M38 16c-2-4-4-2-4 2s2 6 4 6 2-4 0-8z" fill="#F48FB1"/>
  <path d="M22 24c0-4 2-4 4-2s4 6 2 8-6-2-6-6z" fill="#F48FB1"/>
  <path d="M42 22c0-4-2-4-4-2s-4 6-2 8 6-2 6-6z" fill="#F48FB1"/>
  <circle cx="32" cy="22" r="3" fill="#FFD54F"/>
  <path d="M30 22c0-2 1-3 2-3" stroke="#E91E63" stroke-width="1" stroke-linecap="round"/>
</svg>