<svg xmlns="http://www.w3.org/2000/svg" viewBox="0 0 64 64" fill="none">
  <circle cx="32" cy="32" r="30" fill="#FBE9E7"/>
  <line x1="32" y1="10" x2="32" y2="24" stroke="#4CAF50" stroke-width="2.5" stroke-linecap="round"/>
  <line x1="14" y1="24" x2="50" y2="24" stroke="#A1887F" stroke-width="1.5"/>
  <path d="M32 24c-2 6-6 12-8 18" stroke="#8D6E63" stroke-width="2.5" stroke-linecap="round"/>
  <path d="M32 24c2 6 6 12 8 18" stroke="#8D6E63" stroke-width="2.5" stroke-linecap="round"/>
  <path d="M26 36c-2 0-2-2 0-2s2 2 0 2z" fill="#FBE9E7"/>
  <path d="M38 34c2 0 2-2 0-2s-2 2 0 2z" fill="#FBE9E7"/>
  <path d="M30 42c-1 0-2-2 0-2s1 2 0 2z" fill="#FBE9E7"/>
  <ellipse cx="22" cy="40" rx="3" ry="2" fill="#5D4037"/>
  <circle cx="21" cy="39" r="0.8" fill="#FFF"/>
  <line x1="19" y1="38" x2="17" y2="36" stroke="#5D4037" stroke-width="0.8" stroke-linecap="round"/>
  <line x1="19" y1="39" x2="17" y2="39" stroke="#5D4037" stroke-width="0.8" stroke-linecap="round"/>
</svg>