<svg xmlns="http://www.w3.org/2000/svg" viewBox="0 0 64 64" fill="none">
  <circle cx="32" cy="32" r="30" fill="#E8F5E9"/>
  <path d="M32 14c-14 8-18 22-12 32 3 5 8 6 12 6s9-1 12-6c6-10 2-24-12-32z" fill="#66BB6A"/>
  <line x1="32" y1="14" x2="32" y2="52" stroke="#388E3C" stroke-width="1.5"/>
  <path d="M22 36l8-6 8 4 8-4" stroke="#FAFAFA" stroke-width="0.8" opacity="0.8"/>
  <path d="M20 42l10-4 6 2 10-4" stroke="#FAFAFA" stroke-width="0.8" opacity="0.7"/>
  <path d="M24 30l6 4 4-2 6 4" stroke="#FAFAFA" stroke-width="0.8" opacity="0.6"/>
  <path d="M30 28v16M36 30v14" stroke="#FAFAFA" stroke-width="0.6" opacity="0.5"/>
  <circle cx="30" cy="36" r="1" fill="#EF5350"/>
  <circle cx="36" cy="40" r="0.8" fill="#EF5350"/>
</svg>